# xmcd
#
# Track frame offsets: 
#        150
#        9602
#        20830
#        31874
#        42355
#        54744
#        67266
#        79179
#        93499
#        106699
#        119957
#        130000
#        139669
#        149714
#        160399
#        168937
#        179154
#        189091
#        200824
#        213198
#        224059
#        235606
#        244150
#        256909
#        268524
#        279306
#        291619
#        303152
#        315119
#
# Disc length: 4376 seconds
#
# Revision: 1
# Processed by: cddbd v1.5.2PL0 Copyright (c) Steve Scherf et al.
# Submitted via: ExactAudioCopy v1.0b1
#
DISCID=bb11161d
DTITLE=Loretta Lynn - Your Squaw Is On The Warpath - Fist City
DYEAR=2011
DGENRE=Country
TTITLE0=Your Squaw Is On The Warpath (stereo)
TTITLE1=Living My Lifetime For You (stereo)
TTITLE2=Sneakin' In (stereo)
TTITLE3=You've Just Stepped In (From Stepping Out On Me) (stereo)
TTITLE4=Taking The Place Of My Man (stereo)
TTITLE5=Kaw-Liga (stereo)
TTITLE6=Let Me Go, You're Hurtin' Me (stereo)
TTITLE7=Harper Valley P.T.A. (stereo)
TTITLE8=I Walk Alone (stereo)
TTITLE9=He's Somewhere Between You And Me (stereo)
TTITLE10=You Ain't Woman Enough (stereo)
TTITLE11=Don't Come Home A-Drinkin' (stereo)
TTITLE12=Fist City (stereo)
TTITLE13=Jackson Ain't A Very Big Town (stereo)
TTITLE14=You Didn't Like My Lovin' (stereo)
TTITLE15=I've Got Texas In My Heart (stereo)
TTITLE16=You Never Were Mine (stereo)
TTITLE17=Somebody's Back In Town (stereo)
TTITLE18=A Satisfied Mind (stereo)
TTITLE19=How Long Will It Take (stereo)
TTITLE20=I Don't Wanna Play House (stereo)
TTITLE21=I'm Shootin' For Tomorrow (stereo)
TTITLE22=What Kind Of Girl (Do You Think I Am) (stereo)
TTITLE23=I Know How (stereo)
TTITLE24=The One You Need (stereo)
TTITLE25=Crazy Out Of My Mind (stereo)
TTITLE26=You Wanna Give Me A Lift (stereo)
TTITLE27=Wings Upon Your Horns (stereo)
TTITLE28=Woman Of The World (Leave My World Alone) (stereo)
EXTD=
EXTT0=
EXTT1=
EXTT2=
EXTT3=
EXTT4=
EXTT5=
EXTT6=
EXTT7=
EXTT8=
EXTT9=
EXTT10=
EXTT11=
EXTT12=
EXTT13=
EXTT14=
EXTT15=
EXTT16=
EXTT17=
EXTT18=
EXTT19=
EXTT20=
EXTT21=
EXTT22=
EXTT23=
EXTT24=
EXTT25=
EXTT26=
EXTT27=
EXTT28=
PLAYORDER=
